<svg xmlns="http://www.w3.org/2000/svg" width="26.607" height="24.389" viewBox="0 0 26.607 24.389"><defs><style>.a{fill:#231f20;}</style></defs><g transform="translate(0 -0.008)"><path class="a" d="M12.195,24.4A12.194,12.194,0,1,1,18.773,1.936a.832.832,0,0,1-.9,1.4A10.53,10.53,0,1,0,22.726,12.2c0-.347-.017-.691-.049-1.029a.831.831,0,0,1,1.655-.161q.056.587.056,1.19A12.209,12.209,0,0,1,12.195,24.4Zm0,0"/><path class="a" d="M155.16,35.2a.825.825,0,0,1-.587-.244l-4.989-4.989a.832.832,0,1,1,1.176-1.176l4.4,4.4,11.606-11.606a.832.832,0,0,1,1.176,1.176L155.748,34.962a.833.833,0,0,1-.589.243Zm0,0" transform="translate(-141.579 -20.231)"/></g></svg>