<svg xmlns="http://www.w3.org/2000/svg" width="69.095" height="54.283" viewBox="0 0 69.095 54.283"><defs><style>.a{fill:#64636d;}</style></defs><g transform="translate(0 0)"><path class="a" d="M69.068,89.477v-11.6a11.221,11.221,0,0,0-1.234-4.935L60.451,60.362a4.776,4.776,0,0,0-4.194-2.467h-11.1A3.266,3.266,0,0,0,41.946,61.1V87.5H39.478V52.96a4.949,4.949,0,0,0-4.935-4.935H0V92.438H7.4a10.064,10.064,0,0,1,9.623-7.4,9.846,9.846,0,0,1,9.623,7.4H44.66a10.064,10.064,0,0,1,9.623-7.4,9.358,9.358,0,0,1,8.636,5.428,3.822,3.822,0,0,0,3.189,1.974C67.834,92.438,69.315,90.958,69.068,89.477ZM46.881,75.166V62.829h9.87l7.155,12.337Z" transform="translate(0 -48.025)"/></g><g transform="translate(46.881 39.478)"><path class="a" d="M311.4,304.025a7.4,7.4,0,1,0,7.4,7.4A7.27,7.27,0,0,0,311.4,304.025Zm0,10.857a3.454,3.454,0,1,1,3.454-3.454A3.373,3.373,0,0,1,311.4,314.882Z" transform="translate(-304 -304.025)"/></g><g transform="translate(9.87 39.478)"><path class="a" d="M71.4,304.025a7.4,7.4,0,1,0,7.4,7.4A7.27,7.27,0,0,0,71.4,304.025Zm0,10.857a3.454,3.454,0,1,1,3.454-3.454A3.373,3.373,0,0,1,71.4,314.882Z" transform="translate(-64 -304.025)"/></g><g transform="translate(16.015 45.861)"><g transform="translate(0 0)"><ellipse class="a" cx="1.274" cy="1.092" rx="1.274" ry="1.092"/></g></g><g transform="translate(53.14 45.861)"><g transform="translate(0 0)"><ellipse class="a" cx="1.274" cy="1.092" rx="1.274" ry="1.092"/></g></g></svg>