<svg xmlns="http://www.w3.org/2000/svg" width="47.804" height="54.283" viewBox="0 0 47.804 54.283"><defs><style>.a{fill:#64636d;}</style></defs><g transform="translate(35.056 9.56)"><path class="a" d="M365.987,90.17H362.8a1.593,1.593,0,1,0,0,3.187h3.187a1.593,1.593,0,0,0,0-3.187Z" transform="translate(-361.207 -90.17)"/></g><g transform="translate(19.121 0)"><g transform="translate(0 0)"><path class="a" d="M215.52,4.067,213.926.88a1.594,1.594,0,0,0-2.851,1.425l1.594,3.187a1.594,1.594,0,1,0,2.851-1.425Z" transform="translate(-210.907 0)"/></g></g><g transform="translate(30.275 0)"><path class="a" d="M320.013.167a1.6,1.6,0,0,0-2.138.713l-1.593,3.187a1.594,1.594,0,1,0,2.851,1.425l1.594-3.187A1.594,1.594,0,0,0,320.013.167Z" transform="translate(-316.112 0)"/></g><g transform="translate(12.748 9.56)"><path class="a" d="M155.573,90.17h-3.187a1.593,1.593,0,0,0,0,3.187h3.187a1.593,1.593,0,1,0,0-3.187Z" transform="translate(-150.793 -90.17)"/></g><g transform="translate(0 25.601)"><g transform="translate(0)"><path class="a" d="M38.523,241.468H32.149a1.594,1.594,0,0,0-1.593,1.594v25.5a1.594,1.594,0,0,0,1.593,1.593h6.374a1.594,1.594,0,0,0,1.593-1.593v-25.5A1.593,1.593,0,0,0,38.523,241.468Z" transform="translate(-30.556 -241.468)"/></g></g><g transform="translate(12.748 9.666)"><g transform="translate(0)"><path class="a" d="M185.818,111.33a5.012,5.012,0,0,0-5.078-4.224H168.317c1.056-1.89,1.622-7.237,1.6-9.422a6.635,6.635,0,0,0-6.651-6.513h-1.315a1.593,1.593,0,0,0-1.593,1.593c0,3.685-1.435,10.336-4.141,13.042a17.65,17.65,0,0,1-5.42,3.5v23.91a37.224,37.224,0,0,0,13.144,2.57h10.424c3.435,0,6.109-3.181,4.779-6.542a4.782,4.782,0,0,0,3.187-6.374,4.783,4.783,0,0,0,2.3-7.8A4.77,4.77,0,0,0,185.818,111.33Z" transform="translate(-150.794 -91.172)"/></g></g></svg>