<svg xmlns="http://www.w3.org/2000/svg" width="20.087" height="15.36" viewBox="0 0 20.087 15.36"><defs><style>.a{fill:#1a124d;stroke:#1a124d;stroke-width:0.25px;}</style></defs><g transform="translate(0.125 0.125)"><path class="a" d="M18.093,61H1.743A1.746,1.746,0,0,0,0,62.743V74.367A1.746,1.746,0,0,0,1.743,76.11h16.35a1.746,1.746,0,0,0,1.743-1.743V62.743A1.746,1.746,0,0,0,18.093,61Zm-.241,1.162-7.9,7.9-7.966-7.9ZM1.162,74.126V62.979l5.6,5.55Zm.822.822,5.6-5.6,1.963,1.946a.581.581,0,0,0,.82,0l1.914-1.914,5.571,5.571Zm16.69-.822L13.1,68.555l5.571-5.571Z" transform="translate(0 -61)"/></g></svg>