<svg xmlns="http://www.w3.org/2000/svg" width="77.181" height="73.105" viewBox="0 0 77.181 73.105"><defs><style>.a{fill:#64636d;}.b{fill:#fff;}</style></defs><path class="a" d="M38.361,199.4l9.1-9.1,7.2,7.2-9.1,9.1a.387.387,0,0,1-.65-.364l.813-3.4.985-4.12a.387.387,0,0,0-.466-.466l-7.52,1.8A.387.387,0,0,1,38.361,199.4Z" transform="translate(-26.907 -134.828)"/><path class="a" d="M174.738,206.6l-9.1-9.1,7.2-7.2,9.1,9.1a.387.387,0,0,1-.364.65l-3.4-.813-4.12-.985a.387.387,0,0,0-.466.466l1.8,7.52A.387.387,0,0,1,174.738,206.6Z" transform="translate(-115.619 -134.828)"/><path class="a" d="M174.74,216.9l-9.1-9.1,2.711-2.708L174,210.744l1.388,5.8A.388.388,0,0,1,174.74,216.9Z" transform="translate(-115.621 -145.132)"/><path class="a" d="M193.224,200.043l-3.4-.811-.853-.2-6.61-6.61,2.125-2.128,9.1,9.1A.386.386,0,0,1,193.224,200.043Z" transform="translate(-127.265 -134.825)"/><path class="a" d="M49.739,192.568l-6.361,6.364-4.655,1.111a.387.387,0,0,1-.364-.65l9.1-9.1Z" transform="translate(-26.907 -134.825)"/><path class="a" d="M69.926,208.8l-9.1,9.1a.386.386,0,0,1-.65-.361l.814-3.4.3-1.254,6.364-6.361Z" transform="translate(-42.169 -146.128)"/><ellipse class="a" cx="31.809" cy="31.809" rx="31.809" ry="31.809" transform="translate(6.782 1.214)"/><path class="a" d="M72.6,83.74q-1.125.1-2.277.1a25.146,25.146,0,0,1,0-50.292q1.152,0,2.277.1a25.146,25.146,0,0,0,0,50.086Z" transform="translate(-31.736 -25.675)"/><path class="a" d="M154.585,43.418a31.809,31.809,0,0,1-31.807,31.81q-1.148,0-2.277-.082a31.809,31.809,0,0,0,0-63.454q1.129-.082,2.277-.082a31.806,31.806,0,0,1,31.807,31.807Z" transform="translate(-84.187 -10.397)"/><path class="a" d="M57.325,75.147q-1.129.082-2.277.082a31.809,31.809,0,0,1,0-63.618q1.148,0,2.277.082a31.809,31.809,0,0,0,0,63.454Z" transform="translate(-16.457 -10.397)"/><path class="a" d="M78.134,106.663H6.42A1.518,1.518,0,0,1,4.9,105.145V93.168A1.518,1.518,0,0,1,6.42,91.65H78.135a1.518,1.518,0,0,1,1.518,1.518v11.977A1.518,1.518,0,0,1,78.134,106.663Z" transform="translate(-3.687 -66.134)"/><path class="a" d="M237.172,93.169v11.978a1.519,1.519,0,0,1-1.518,1.518H231.1a1.519,1.519,0,0,0,1.518-1.518V93.169a1.519,1.519,0,0,0-1.518-1.518h4.554A1.519,1.519,0,0,1,237.172,93.169Z" transform="translate(-161.206 -66.135)"/><path class="a" d="M10.972,106.665H6.418A1.519,1.519,0,0,1,4.9,105.147V93.169a1.519,1.519,0,0,1,1.518-1.518h4.554a1.519,1.519,0,0,0-1.518,1.518v11.978A1.519,1.519,0,0,0,10.972,106.665Z" transform="translate(-3.686 -66.135)"/><g transform="translate(0 0)"><path class="b" d="M75.348,31.913h-4a33.026,33.026,0,0,0-63.706,0h-4A2.737,2.737,0,0,0,.9,34.646V46.623a2.737,2.737,0,0,0,2.733,2.733H7.64a33.043,33.043,0,0,0,9.9,15.925L11.5,71.32A1.6,1.6,0,0,0,13,74.01l6.209-1.485-1.485,6.212a1.6,1.6,0,0,0,2.69,1.5l8.368-8.368a32.992,32.992,0,0,0,21.858-.155l8.523,8.523a1.6,1.6,0,0,0,2.69-1.5l-1.485-6.212,6.209,1.485a1.6,1.6,0,0,0,1.5-2.69L61.755,65A33.027,33.027,0,0,0,71.34,49.356h4.008a2.737,2.737,0,0,0,2.733-2.733V34.646a2.737,2.737,0,0,0-2.733-2.733ZM39.49,10.04A30.645,30.645,0,0,1,68.814,31.913H64.366a26.36,26.36,0,0,0-49.751,0H10.167A30.645,30.645,0,0,1,39.49,10.04ZM61.776,31.913H17.2a23.931,23.931,0,0,1,44.572,0ZM20.769,76.451l1.117-4.67a1.6,1.6,0,0,0-1.931-1.931l-4.673,1.117,4.132-4.132a32.878,32.878,0,0,0,6.9,4.075ZM64.29,70.968,59.62,69.85a1.6,1.6,0,0,0-1.931,1.931l1.117,4.67-5.723-5.723A33.149,33.149,0,0,0,59.9,66.577Zm-24.8.261A30.632,30.632,0,0,1,10.167,49.356h4.448a26.361,26.361,0,0,0,49.751,0h4.448A30.671,30.671,0,0,1,39.49,71.229ZM17.2,49.356H61.776a23.933,23.933,0,0,1-44.572,0Zm58.447-2.733a.3.3,0,0,1-.3.3H3.633a.3.3,0,0,1-.3-.3V34.646a.3.3,0,0,1,.3-.3H75.348a.3.3,0,0,1,.3.3Z" transform="translate(-0.9 -7.611)"/><path class="b" d="M83.686,54.521h-.735a.635.635,0,0,0-.288.073l-1.391.744a.614.614,0,0,0-.3.686l.167.656a.609.609,0,0,0,.877.386l.231-.124V61.5a.609.609,0,0,0,.607.607h.835a.609.609,0,0,0,.607-.607V55.128a.609.609,0,0,0-.607-.607Z" transform="translate(-56.646 -40.278)"/><path class="b" d="M97.841,54.171c-1.712,0-2.821,1.539-2.821,3.926.024,2.857,1.418,3.874,2.714,3.874,1.767,0,2.821-1.482,2.821-3.968C100.555,55.6,99.541,54.171,97.841,54.171Zm-.058,5.921c-.34,0-.686-.683-.686-1.992,0-1.33.358-2.049.7-2.049.507,0,.686,1.029.686,1.992C98.478,59.287,98.2,60.092,97.783,60.092Z" transform="translate(-66.443 -40.034)"/><path class="b" d="M117.824,54.171c-1.715,0-2.824,1.539-2.824,3.926.027,2.857,1.421,3.874,2.714,3.874,1.767,0,2.824-1.482,2.824-3.968C120.538,55.6,119.521,54.171,117.824,54.171Zm-.061,5.921c-.34,0-.686-.683-.686-1.992,0-1.33.358-2.049.7-2.049.507,0,.689,1.029.689,1.992,0,1.245-.273,2.049-.7,2.049Z" transform="translate(-80.357 -40.034)"/><path class="b" d="M147.955,51.79l-7.472,7.566a.91.91,0,0,0,1.287,1.287l7.472-7.566A.91.91,0,0,0,147.955,51.79Z" transform="translate(-97.909 -38.181)"/><path class="b" d="M161.046,68.211a2.316,2.316,0,0,0-2.356,2.481,2.262,2.262,0,0,0,2.3,2.423,2.321,2.321,0,0,0,2.365-2.481A2.265,2.265,0,0,0,161.046,68.211Zm-.027,3.206c-.27,0-.465-.313-.465-.747,0-.128.024-.762.48-.762.437,0,.449.741.449.747C161.483,71.089,161.283,71.417,161.019,71.417Z" transform="translate(-110.782 -49.812)"/><path class="b" d="M142.361,52.094a2.263,2.263,0,0,0-2.3-2.423,2.316,2.316,0,0,0-2.356,2.481,2.259,2.259,0,0,0,2.3,2.423A2.321,2.321,0,0,0,142.361,52.094Zm-2.8.036c0-.128.024-.762.48-.762.437,0,.449.741.449.747,0,.434-.2.762-.465.762S139.561,52.565,139.561,52.13Z" transform="translate(-96.165 -36.901)"/><path class="b" d="M108.906,161.81a1.3,1.3,0,0,0,1.139.036c.308-.123,4.2-4.077,7.5-7.375a1.315,1.315,0,0,0-1.861-1.858L109.5,158.8,106.6,156a1.316,1.316,0,0,0-1.831,1.892C104.89,158,108.749,161.771,108.906,161.81Z" transform="translate(-72.945 -108.306)"/><path class="b" d="M172.9,153.768a1.213,1.213,0,0,0,1.639-.515c.221-.423.428-.869.616-1.325A1.214,1.214,0,0,0,172.91,151c-.16.389-.336.768-.524,1.127A1.214,1.214,0,0,0,172.9,153.768Z" transform="translate(-120.223 -106.942)"/><path class="b" d="M143.5,170.182a1.214,1.214,0,0,0,1.211,1.135l.081,0a12.121,12.121,0,0,0,6.7-3.081,1.214,1.214,0,1,0-1.619-1.811,9.857,9.857,0,0,1-5.247,2.468,1.214,1.214,0,0,0-1.127,1.291Z" transform="translate(-100.204 -117.989)"/><path class="b" d="M23.51,103.705H22.392a.456.456,0,0,0-.427.3c-1.242,3.373-1.255,3.391-1.5,4.141-.235-.744-.255-.785-1.437-4.135a.455.455,0,0,0-.43-.3H17.477a.456.456,0,0,0-.455.424l-.473,6.787A.456.456,0,0,0,17,111.4h.836a.455.455,0,0,0,.455-.427c.192-3.083.183-2.928.2-3.248.039.116,1.089,3.208,1.129,3.325a.456.456,0,0,0,.431.309h.665a.456.456,0,0,0,.428-.3c.02-.056,1.259-3.46,1.279-3.516.032.6-.006-.073.195,3.426a.455.455,0,0,0,.455.429h.856a.456.456,0,0,0,.455-.484l-.423-6.787a.455.455,0,0,0-.454-.427Z" transform="translate(-11.797 -74.529)"/><path class="b" d="M50.268,103.339c-2.124,0-3.607,1.653-3.607,4.021,0,2.3,1.442,3.9,3.507,3.9,1.8,0,3.608-1.246,3.608-4.031,0-2.29-1.442-3.89-3.507-3.89Zm-.051,6.294c-1.175,0-1.71-1.189-1.71-2.294s.45-2.374,1.72-2.374c1.175,0,1.71,1.194,1.71,2.3C51.938,108.446,51.406,109.633,50.218,109.633Z" transform="translate(-32.767 -74.274)"/><path class="b" d="M80.28,103.705h-.826a.455.455,0,0,0-.455.455c0,3.069,0,3.2.006,3.682-.2-.325-.1-.167-2.479-3.926a.455.455,0,0,0-.385-.212h-.957a.455.455,0,0,0-.455.455v6.787a.455.455,0,0,0,.455.455h.826a.455.455,0,0,0,.455-.455c0-3.144,0-3.292-.006-3.843.229.383.2.332,2.548,4.085a.455.455,0,0,0,.386.214h.886a.455.455,0,0,0,.455-.455V104.16A.455.455,0,0,0,80.28,103.705Z" transform="translate(-52.313 -74.529)"/><path class="b" d="M104.394,109.757h-2.485v-1.536h2.183a.455.455,0,0,0,.455-.455v-.725a.455.455,0,0,0-.455-.455h-2.183v-1.234h2.334a.455.455,0,0,0,.455-.455v-.735a.455.455,0,0,0-.455-.455h-3.666a.455.455,0,0,0-.455.455v6.787a.455.455,0,0,0,.455.455h3.817a.455.455,0,0,0,.455-.455v-.735a.455.455,0,0,0-.455-.455Z" transform="translate(-69.996 -74.529)"/><path class="b" d="M125.352,103.7h-1a.456.456,0,0,0-.4.245c-.877,1.682-1,1.921-1.265,2.439-.176-.357-.218-.438-1.238-2.435a.455.455,0,0,0-.406-.248h-1a.456.456,0,0,0-.4.675l2.089,3.8v2.764a.455.455,0,0,0,.455.455h.886a.455.455,0,0,0,.455-.455v-2.767l2.214-3.791A.456.456,0,0,0,125.352,103.7Z" transform="translate(-83.553 -74.529)"/><path class="b" d="M158.655,107.12a1.933,1.933,0,0,0,.658-1.451,1.882,1.882,0,0,0-.733-1.552,3.236,3.236,0,0,0-2.15-.595,8.993,8.993,0,0,0-1.7.151.455.455,0,0,0-.362.446V110.8a.455.455,0,0,0,.393.451,10.676,10.676,0,0,0,1.422.085,3.774,3.774,0,0,0,2.663-.763,2.269,2.269,0,0,0,.712-1.686A2.085,2.085,0,0,0,158.655,107.12Zm-2.494-2c.1-.005.2-.008.32-.008,1.035,0,1.035.441,1.035.652,0,.5-.524.683-1.015.683h-.34Zm.28,4.62q-.156,0-.28,0v-1.714h.27c.591,0,1.3.148,1.3.854C157.727,109.445,157.295,109.735,156.441,109.735Z" transform="translate(-107.776 -74.401)"/><path class="b" d="M179.1,104.012a.456.456,0,0,0-.431-.308H177.61a.455.455,0,0,0-.431.309l-2.306,6.787a.456.456,0,0,0,.431.6h.906a.455.455,0,0,0,.432-.313l.6-1.822H179l.62,1.826a.456.456,0,0,0,.431.309h.936a.455.455,0,0,0,.431-.6Zm-1.367,3.659.386-1.139.388,1.139Z" transform="translate(-122.034 -74.528)"/><path class="b" d="M203.042,105a2.7,2.7,0,0,1,1.171.237.456.456,0,0,0,.635-.281l.212-.715a.456.456,0,0,0-.226-.533,3.99,3.99,0,0,0-1.822-.354,3.837,3.837,0,0,0-4,4.02,3.608,3.608,0,0,0,3.809,3.89c.754,0,2.424-.159,2.233-.892l-.181-.695a.455.455,0,0,0-.639-.3c-.771.374-3.384.664-3.384-2.037A2.068,2.068,0,0,1,203.042,105Z" transform="translate(-138.861 -74.286)"/><path class="b" d="M226.543,107.071l2.232-2.616a.456.456,0,0,0-.346-.751h-1.088a.455.455,0,0,0-.353.168l-1.83,2.248v-1.96a.455.455,0,0,0-.455-.455h-.876a.455.455,0,0,0-.455.455v6.787a.455.455,0,0,0,.455.455h.876a.455.455,0,0,0,.455-.455v-2.418l.143-.165,1.9,2.838a.455.455,0,0,0,.378.2h1.037a.456.456,0,0,0,.377-.711Z" transform="translate(-155.824 -74.528)"/></g></svg>