<svg xmlns="http://www.w3.org/2000/svg" width="18.221" height="18.255" viewBox="0 0 18.221 18.255"><defs><style>.a{fill:none;stroke:#1a124d;stroke-linecap:round;stroke-linejoin:round;stroke-width:1.5px;}</style></defs><path class="a" d="M18.831,14.543v2.522A1.681,1.681,0,0,1,17,18.746a16.637,16.637,0,0,1-7.255-2.581A16.393,16.393,0,0,1,4.7,11.121,16.637,16.637,0,0,1,2.119,3.833,1.681,1.681,0,0,1,3.792,2H6.314A1.681,1.681,0,0,1,7.995,3.446a10.794,10.794,0,0,0,.588,2.362,1.681,1.681,0,0,1-.378,1.774L7.137,8.65a13.451,13.451,0,0,0,5.044,5.044l1.068-1.068a1.681,1.681,0,0,1,1.774-.378,10.794,10.794,0,0,0,2.362.588,1.681,1.681,0,0,1,1.446,1.707Z" transform="translate(-1.361 -1.25)"/></svg>