<svg xmlns="http://www.w3.org/2000/svg" width="64.635" height="54.283" viewBox="0 0 64.635 54.283"><defs><style>.a{fill:#64636d;}</style></defs><path class="a" d="M83.936,258.1a14.868,14.868,0,0,0-.2-3.8,6.954,6.954,0,0,0-6.747-5.3h-2.02a6.95,6.95,0,0,0-6.943,6.943V258.1A3.3,3.3,0,0,0,65,261.39v12.334a3.3,3.3,0,0,0,3.3,3.3H83.664a3.3,3.3,0,0,0,3.3-3.3V261.39A3.3,3.3,0,0,0,83.936,258.1Zm-12.119-2.159a3.159,3.159,0,0,1,3.156-3.156c1.935,0,3.621-.273,4.715,1.515.58.95.461,1.6.461,3.787H71.817Z" transform="translate(-56.794 -222.742)"/><path class="a" d="M56.139,41H8.5A8.505,8.505,0,0,0,0,49.5v1.6H64.634V49.5A8.505,8.505,0,0,0,56.139,41Z" transform="translate(0 -41)"/><path class="a" d="M0,172.8a8.5,8.5,0,0,0,4.418,7.449c0-4.348-.575-7.777,3.037-10.3.46-14.008,23.009-13.891,23.465,0,3.758,2.628,3.037,6.458,3.037,11.349h22.18a8.505,8.505,0,0,0,8.5-8.5V151H0Zm36.483-12.879a4.637,4.637,0,0,1,4.63-4.63H51.8a4.637,4.637,0,0,1,4.63,4.63v2.606a4.637,4.637,0,0,1-4.63,4.63H41.114a4.637,4.637,0,0,1-4.63-4.63Z" transform="translate(0 -137.114)"/><path class="a" d="M319.631,218.973c10.777,0,11.528.343,11.528-.843,0-2.169.278-3.449-.843-3.449-10.777,0-11.528-.343-11.528.843C318.788,217.693,318.51,218.973,319.631,218.973Z" transform="translate(-278.518 -192.715)"/></svg>