<svg xmlns="http://www.w3.org/2000/svg" width="46.225" height="54.283" viewBox="0 0 46.225 54.283"><defs><style>.a{fill:#64636d;}</style></defs><path class="a" d="M130.784,158.457A10.343,10.343,0,1,0,141.126,168.8,10.354,10.354,0,0,0,130.784,158.457Zm6.141,8.395-7.41,7.409a1.592,1.592,0,0,1-2.253,0l-2.831-2.831a1.592,1.592,0,1,1,2.252-2.252l1.705,1.705,6.284-6.283a1.592,1.592,0,1,1,2.252,2.252Zm0,0" transform="translate(-107.672 -141.657)"/><path class="a" d="M46.171,14.727l0-.042c-.024-.521-.039-1.073-.049-1.687A5.753,5.753,0,0,0,40.7,7.362,22.324,22.324,0,0,1,25.509.958L25.474.924a3.474,3.474,0,0,0-4.721,0l-.035.034a22.327,22.327,0,0,1-15.195,6.4A5.753,5.753,0,0,0,.106,13C.1,13.608.081,14.16.057,14.685l0,.1c-.121,6.364-.272,14.285,2.378,21.474A27.336,27.336,0,0,0,8.99,46.472a34.306,34.306,0,0,0,12.834,7.591,3.974,3.974,0,0,0,.526.143,3.885,3.885,0,0,0,1.527,0,3.988,3.988,0,0,0,.528-.144,34.329,34.329,0,0,0,12.82-7.6A27.374,27.374,0,0,0,43.783,36.25C46.442,29.039,46.292,21.1,46.171,14.727ZM23.112,40.669A13.528,13.528,0,1,1,36.64,27.141,13.543,13.543,0,0,1,23.112,40.669Zm0,0" transform="translate(0 0.001)"/></svg>